# xmcd
#
# Track frame offsets:
#	150
#	18914
#	35971
#	58320
#	74261
#	88926
#	113364
#	131111
#	140906
#	159405
#	182655
#	201115
#	211464
#
# Disc length: 3002 seconds
#
# Revision: 0
# Processed by: cddbd v1.5PL3 Copyright (c) Steve Scherf et al.
# Submitted via: audiograbber 1.81.02
#
DISCID=c60bb80d
DTITLE=Sepeto - Semillas del Son
DYEAR=1900
DGENRE=
TTITLE0=Pintate los labios
TTITLE1=El madrugador
TTITLE2=Guantanamera
TTITLE3=Besito de coco
TTITLE4=Sublime Ilusion
TTITLE5=Duele mas
TTITLE6=Echale salsita
TTITLE7=Convergencia
TTITLE8=El Tomatero
TTITLE9=Aquella tarde
TTITLE10=De ti enamorade
TTITLE11=Quizas, quizas, quizas
TTITLE12=Bonito y sabroso
EXTD=
EXTT0=
EXTT1=
EXTT2=
EXTT3=
EXTT4=
EXTT5=
EXTT6=
EXTT7=
EXTT8=
EXTT9=
EXTT10=
EXTT11=
EXTT12=
PLAYORDER=
